<svg id="Capa_1" enable-background="new 0 0 511.88 511.88" height="512" viewBox="0 0 511.88 511.88" width="512" xmlns="http://www.w3.org/2000/svg"><g><path d="m15 71.459h481.88v301.18h-481.88z" fill="#edf5ff"/><path d="m255.88 71.459h241v301.18h-241z" fill="#d5e8fe"/><path d="m511.88 71.459v301.18c0 8.28-6.72 15-15 15h-60.23c-8.28 0-15-6.72-15-15s6.72-15 15-15h45.23v-271.18h-451.88v271.18h301.23c8.28 0 15 6.72 15 15s-6.72 15-15 15h-316.23c-8.28 0-15-6.72-15-15v-301.18c0-8.28 6.72-15 15-15h481.88c8.28 0 15 6.72 15 15z" fill="#4d578c"/><path d="m346.23 372.639c0 8.28-6.72 15-15 15h-75.35v-30h75.35c8.28 0 15 6.72 15 15z" fill="#333e73"/><path d="m511.88 71.459v301.18c0 8.28-6.72 15-15 15h-60.23c-8.28 0-15-6.72-15-15s6.72-15 15-15h45.23v-271.18h-226v-30h241c8.28 0 15 6.72 15 15z" fill="#333e73"/><path d="m451.65 259.699v180.7c0 12.175-13.802 19.294-23.72 12.21l-43.99-31.42-43.99 31.42c-9.943 7.077-23.72-.041-23.72-12.21v-180.7c0-8.28 6.72-15 15-15 8.293 0 15 6.72 15 15h75.42c0-8.28 6.72-15 15-15s15 6.72 15 15z" fill="#ff884d"/><path d="m451.65 259.699v180.7c0 12.175-13.802 19.294-23.72 12.21l-43.99-31.42v-161.49h37.71c0-8.28 6.72-15 15-15s15 6.72 15 15z" fill="#ff4d4d"/><path d="m420.174 259.049c0 37.22-36.234 68.15-36.234 68.15-37.22 0-67.5-30.28-67.5-67.5s30.28-67.5 67.5-67.5c0 0 36.234 29.63 36.234 66.85z" fill="#fed843"/><path d="m451.44 259.699c0 37.22-30.28 67.5-67.5 67.5v-135c37.22 0 67.5 30.28 67.5 67.5z" fill="#fabe2c"/><g fill="#2ee66b"><path d="m451.65 131.699c0 8.28-6.72 15-15 15h-361.42c-8.28 0-15-6.72-15-15 0-8.29 6.72-15 15-15h361.42c8.28 0 15 6.71 15 15z"/><path d="m240.881 206.931h-165.647c-8.284 0-15-6.716-15-15s6.716-15 15-15h165.647c8.284 0 15 6.716 15 15s-6.715 15-15 15z"/><path d="m240.881 267.167h-165.647c-8.284 0-15-6.716-15-15s6.716-15 15-15h165.647c8.284 0 15 6.716 15 15s-6.715 15-15 15z"/></g><path d="m451.65 131.699c0 8.28-6.72 15-15 15h-180.77v-30h180.77c8.28 0 15 6.71 15 15z" fill="#24b383"/></g></svg>