<svg id="Capa_1" enable-background="new 0 0 511.88 511.88" height="512" viewBox="0 0 511.88 511.88" width="512" xmlns="http://www.w3.org/2000/svg"><g><path d="m15 105.35h481.88v301.18h-481.88z" fill="#edf5ff"/><path d="m255.94 105.35h240.94v301.18h-240.94z" fill="#d5e8fe"/><path d="m371.96 309.31-42.6 42.59c-5.796 5.815-15.319 5.891-21.21 0l-52.21-52.08-52.2 52.08c-5.823 5.823-15.337 5.883-21.22 0l-42.6-42.59c-5.839-5.838-5.862-15.348 0-21.21l60.37-60.37c5.86-5.86 15.36-5.86 21.21 0 5.78 5.77 5.85 15.09.23 20.96 24.251 23.186 21.766 21.014 22.1 20.68 3.31-3.31 7.78-4.75 12.11-4.32 4.32-.43 8.79 1 12.1 4.32.373.357-1.453 1.848 22.12-20.68-5.62-5.87-5.56-15.19.22-20.96 5.86-5.86 15.36-5.86 21.21 0l60.37 60.37c5.894 5.873 5.836 15.395 0 21.21z" fill="#ff884d"/><path d="m371.96 309.31-42.6 42.59c-5.796 5.815-15.319 5.891-21.21 0l-52.21-52.08v-34.77c4.424-.44 8.544.913 12.34 4.55l21.88-20.91c-5.62-5.87-5.56-15.19.22-20.96 5.86-5.86 15.36-5.86 21.21 0l60.37 60.37c5.894 5.873 5.836 15.395 0 21.21z" fill="#ff4d4d"/><circle cx="255.94" cy="239.82" fill="#fed843" r="60"/><path d="m315.94 239.82c0 33.08-26.91 60-60 60v-120c33.09 0 60 26.91 60 60z" fill="#fabe2c"/><path d="m180.646 180.587h-105.412c-8.284 0-15-6.716-15-15s6.716-15 15-15h105.412c8.284 0 15 6.716 15 15s-6.716 15-15 15z" fill="#2ee66b"/><path d="m127.94 240.822h-52.706c-8.284 0-15-6.716-15-15s6.716-15 15-15h52.706c8.284 0 15 6.716 15 15s-6.716 15-15 15z" fill="#2ee66b"/><path d="m436.646 180.587h-105.412c-8.284 0-15-6.716-15-15s6.716-15 15-15h105.412c8.284 0 15 6.716 15 15s-6.716 15-15 15z" fill="#24b383"/><path d="m436.646 240.822h-52.706c-8.284 0-15-6.716-15-15s6.716-15 15-15h52.706c8.284 0 15 6.716 15 15s-6.716 15-15 15z" fill="#24b383"/><path d="m496.88 90.35h-481.88c-8.28 0-15 6.72-15 15v301.18c0 8.28 6.72 15 15 15h481.88c8.28 0 15-6.72 15-15v-301.18c0-8.28-6.72-15-15-15zm-15 301.18h-451.88v-271.18h451.88z" fill="#4d578c"/><path d="m511.88 105.35v301.18c0 8.28-6.72 15-15 15h-240.94v-30h225.94v-271.18h-225.94v-30h240.94c8.28 0 15 6.72 15 15z" fill="#333e73"/></g></svg>