<svg id="Capa_1" enable-background="new 0 0 506.719 506.719" height="512" viewBox="0 0 506.719 506.719" width="512" xmlns="http://www.w3.org/2000/svg"><g><path d="m502.33 125.349c-14.984 14.984-108.899 108.899-123.52 123.52-5.823 5.823-15.337 5.883-21.22 0-4.6-4.61-5.57-11.45-2.94-17.01l-85.35-40.35c-2.759 5.907-9.201 9.462-15.94 8.39-.02 0-.04.01-.06.01-6.745 1.048-13.144-2.542-15.88-8.4l-85.35 40.35c4.704 9.944-2.547 21.4-13.55 21.4-3.84 0-7.68-1.46-10.61-4.39-128.954-129.507-126.588-125.026-127.7-131.61-.78-4.63.61-9.56 4.18-13.13l85.19-85.19c5.86-5.85 15.36-5.85 21.22 0 85.966 85.978 50.147 49.804 142.56 142.216 91.885-91.885 57.267-56.911 142.56-142.216 5.86-5.85 15.36-5.85 21.22 0 10.464 10.464 74.391 74.391 85.19 85.19 5.849 5.87 5.853 15.34 0 21.22z" fill="#fed843"/><path d="m502.33 125.349c-14.984 14.984-108.899 108.899-123.52 123.52-5.823 5.823-15.337 5.883-21.22 0-4.6-4.61-5.57-11.45-2.94-17.01l-85.35-40.35c-2.759 5.907-9.201 9.462-15.94 8.39-.1 0 0 1.669 0-38.744l142.56-142.216c5.86-5.85 15.36-5.85 21.22 0 10.464 10.464 74.391 74.391 85.19 85.19 5.849 5.87 5.853 15.34 0 21.22z" fill="#fabe2c"/><path d="m418.86 326.669c0 91.282-74.355 163.82-165.67 163.82-5.038 0-14.831 1.012-14.831 1.012-89.605-8.052-158.201-87.8-149.819-179.832 7.227-80.165 71.407-142.771 149.82-149.845 0 0 12.897 10.761 23.064 11.687 84.23 7.593 157.436 66.94 157.436 153.158z" fill="#4d578c"/><path d="m418.86 326.669c0 86.208-66.22 157.196-150.5 164.822-4.961.449-7.35-4.353-12.426-4.353 0 0 .389-323.479.489-323.479 5.056 0 6.996-2.263 11.937-1.817 84.347 7.609 150.5 78.734 150.5 164.827z" fill="#333e73"/><path d="m418.18 341.669h-149.82l-1.723 148.501c-4.988.454-13.284 1.997-13.284 1.997-4.995-.001-10.043-.225-14.993-.678v-149.82h-149.82c-.878-9.635-.935-19.731 0-30h149.82v-149.845c4.947-.453 10.003-.672 15-.668 0 0 6.648 2.645 11.638 3.1l3.362 147.414h149.82c.878 9.635.936 19.73 0 29.999z" fill="#333e73"/><path d="m418.18 341.669h-149.82v149.82c-4.94.45-9.94.677-15 .677v-331.01c5.055 0 9.977.229 15.001.687l-.001 149.827h149.82c.878 9.635.936 19.73 0 29.999z" fill="#1f2859"/><path d="m334.701 323.447c0 57.692-81.34 108.222-81.34 108.222-57.87-.03-105-47.12-105-105 0-57.87 47.129-104.97 104.999-105-.001 0 81.341 44.047 81.341 101.778z" fill="#edf5ff"/><path d="m358.36 326.669c0 57.692-46.813 105-105 105l-.001-210c57.9 0 105.001 47.11 105.001 105z" fill="#d5e8fe"/><path d="m298.48 326.669c0 8.29-6.72 15-15 15h-60.24c-8.28 0-15-6.71-15-15 0-8.28 6.72-15 15-15h60.24c8.28 0 15 6.72 15 15z" fill="#4d578c"/><path d="m298.48 326.669c0 8.29-6.72 15-15 15h-30.12l-.007-30h30.127c8.28 0 15 6.72 15 15z" fill="#333e73"/></g></svg>