<svg id="Capa_1" enable-background="new 0 0 509.98 509.98" height="512" viewBox="0 0 509.98 509.98" width="512" xmlns="http://www.w3.org/2000/svg"><g><path d="m352.81 15v156.58c0 8.28-6.72 15-15 15-8.266 0-15-6.719-15-15h-135.64c0 8.28-6.72 15-15 15s-15-6.72-15-15v-156.58c0-8.28 6.72-15 15-15h165.64c8.28 0 15 6.72 15 15z" fill="#2ee66b"/><path d="m352.81 15v156.58c0 8.28-6.72 15-15 15-8.266 0-15-6.719-15-15h-67.82v-171.58h82.82c8.28 0 15 6.72 15 15z" fill="#24b383"/><path d="m239.99 0h30v171.58h-30z" fill="#24b383"/><path d="m254.99 0h15v171.58h-15z" fill="#408080"/><path d="m449.26 294.66-21.65 122.78c-.61 3.48-2.43 6.62-5.13 8.89l-95.51 80.14c-2.7 2.27-6.11 3.51-9.64 3.51h-124.68c-3.53 0-6.94-1.24-9.64-3.51l-95.51-80.14c-2.7-2.27-4.52-5.41-5.13-8.89l-21.65-122.78c-.61-3.47.02-7.05 1.78-10.11l62.34-107.97c1.76-3.06 4.55-5.39 7.86-6.6 124.013-44.678 118.524-43.55 122.29-43.55l106.872 53.233c3.31 1.21 21.518-6.143 23.278-3.083l62.34 107.97c1.76 3.06 2.39 6.64 1.78 10.11z" fill="#fabe2c"/><path d="m449.26 294.66-21.65 122.78c-.61 3.48-2.43 6.62-5.13 8.89l-95.51 80.14c-2.7 2.27-6.11 3.51-9.64 3.51h-62.34v-383.55c3.734 0 .468-.003 122.29 43.55 3.31 1.21 6.1 3.54 7.86 6.6l62.34 107.97c1.76 3.06 2.39 6.64 1.78 10.11z" fill="#ff9e22"/><circle cx="254.99" cy="323.7" fill="#fed843" r="127.5"/><path d="m382.49 323.7c0 70.31-57.2 127.5-127.5 127.5v-255c70.3 0 127.5 57.2 127.5 127.5z" fill="#fabe2c"/><path d="m307.64 293.59c0 8.28-6.72 15-15 15h-75.3c-8.28 0-15-6.72-15-15 0-8.29 6.72-15 15-15h75.3c8.28 0 15 6.71 15 15z" fill="#edf5ff"/><path d="m307.64 353.82c0 8.29-6.72 15-15 15h-75.3c-8.28 0-15-6.71-15-15 0-8.28 6.72-15 15-15h75.3c8.28 0 15 6.72 15 15z" fill="#edf5ff"/><g fill="#d5e8fe"><path d="m307.64 353.82c0 8.29-6.72 15-15 15h-37.65v-30h37.65c8.28 0 15 6.72 15 15z"/><path d="m292.64 308.59h-37.65v-30h37.65c8.28 0 15 6.71 15 15 0 8.28-6.72 15-15 15z"/></g></g></svg>