<svg id="Capa_1" enable-background="new 0 0 511.88 511.88" height="512" viewBox="0 0 511.88 511.88" width="512" xmlns="http://www.w3.org/2000/svg"><g><path d="m185.45 240.82v271.06h-85.628l-16.248-14.379-13.752 14.379h-54.834c-8.285 0-14.988-6.836-14.988-15.12v-165.58l12.855-15.467-12.855-14.533v-45.36c0-8.284 6.716-15 15-15z" fill="#333e73"/><path d="m185.45 301.18v30h-85.628v180.7h-30v-180.7h-69.822v-30z" fill="#d5e8fe"/><path d="m511.88 316.18v45.23l-15.451 15 15.451 15v105.47c0 8.284-6.716 15-15 15h-54.82l-14.331-10.174-15.669 10.174h-76.99v-210.7h161.81c8.284 0 15 6.716 15 15z" fill="#1f2859"/><path d="m511.88 361.41v30h-69.82v120.47h-30v-120.47h-76.99v-30z" fill="#b5dbff"/><path d="m342.77 210.82-18.94 16.67 18.94 13.33v271.06h-71.83l-15-15.79-15 15.79h-71.83v-271.06l20.43-13.33-20.43-16.67v-45.23c0-8.29 6.72-15 15-15h143.66c8.28 0 15 6.71 15 15z" fill="#4d578c"/><path d="m342.77 210.82-18.94 16.67 18.94 13.33v271.06h-71.83l-15-15.79v-345.5h71.83c8.28 0 15 6.71 15 15z" fill="#333e73"/><path d="m342.766 210.812v30h-71.83v271.06h-30v-271.06l-71.826.008-.004-30.008z" fill="#edf5ff"/><path d="m342.77 210.82v30h-71.83v271.06h-15v-301.06z" fill="#d5e8fe"/><path d="m274.52 15v87.21c0 8.29-6.71 15-15 15-8.222 0-15-6.646-15-15v-72.21h-3.64c-8.28 0-15-6.72-15-15 0-8.29 6.72-15 15-15h18.64c8.29 0 15 6.71 15 15z" fill="#fed843"/><path d="m274.52 15v87.21c0 9.683-9.06 16.888-18.58 14.57v-116.78h3.58c8.29 0 15 6.71 15 15z" fill="#fabe2c"/><path d="m58.015 209.592c-4.78-1.593-8.505-5.379-9.966-10.129-3.449-11.216 2.463-12.362 33.963-57.37 2.734-3.907 6.51-10.018 7.116-14.77-.8-8.771-13.477-9.446-15.175-.8-1.597 8.129-9.48 13.424-17.61 11.828-8.129-1.597-13.424-9.481-11.828-17.61 3.459-17.609 19.007-30.39 36.969-30.39 20.774 0 37.676 16.901 37.676 37.676 0 16.27-14.217 34.017-27.829 52.631 5.351-.036 10.986-.089 16.397-.158 8.524-.065 15.086 6.721 15.188 14.811.104 8.284-6.527 15.083-14.811 15.188-28.996.364-45.785.528-50.09-.907z" fill="#d5e8fe"/><path d="m427.722 150.587c-18.238 0-34.023 12.977-37.535 30.855-1.597 8.129 3.699 16.013 11.828 17.61 8.127 1.597 16.013-3.699 17.61-11.828.755-3.846 4.161-6.637 8.098-6.637 4.551 0 8.253 3.702 8.253 8.253s-3.703 8.253-8.253 8.253c-8.284 0-15 6.716-15 15s6.716 15 15 15c4.551 0 8.253 3.702 8.253 8.253s-3.703 8.253-8.253 8.253c-4.432 0-8.253-3.582-8.253-8.253 0-8.284-6.716-15-15-15s-15 6.716-15 15c0 21.249 17.419 38.253 38.253 38.253 31.727 0 49.526-36.535 30.345-61.506 19.17-24.958 1.394-61.506-30.346-61.506z" fill="#ff884d"/></g></svg>