<svg id="Capa_1" enable-background="new 0 0 511.76 511.76" height="512" viewBox="0 0 511.76 511.76" width="512" xmlns="http://www.w3.org/2000/svg"><g><path d="m451.59 15v105.41c0 6.46-4.14 12.19-10.26 14.23-120.113 40.037-81.893 27.302-180.71 60.24-3.098 1.026-6.38 1.027-9.48 0-126.036-42.011-33.507-11.173-180.71-60.24-6.12-2.04-10.26-7.77-10.26-14.23v-105.41c0-8.29 6.72-15 15-15h361.42c8.28 0 15 6.71 15 15z" fill="#2ee66b"/><path d="m451.59 15v105.41c0 6.46-4.14 12.19-10.26 14.23-194.428 64.809-181.941 61.01-185.45 61.01v-195.65h180.71c8.28 0 15 6.71 15 15z" fill="#24b383"/><path d="m150.41 0v161.3l-30-10v-151.3z" fill="#24b383"/><path d="m391.35 0v151.3l-30 10v-161.3z" fill="#408080"/><circle cx="255.88" cy="338.76" fill="#fabe2c" r="173"/><path d="m428.88 338.76c0 95.4-77.61 173-173 173v-346c95.39 0 173 77.61 173 173z" fill="#ff9e22"/><circle cx="255.88" cy="338.76" fill="#fed843" r="112.5"/><path d="m368.38 338.76c0 62.04-50.47 112.5-112.5 112.5v-225c62.03 0 112.5 50.47 112.5 112.5z" fill="#fabe2c"/><path d="m308.53 338.76c0 8.29-6.72 15-15 15h-75.3c-8.28 0-15-6.71-15-15 0-8.28 6.72-15 15-15h75.3c8.28 0 15 6.72 15 15z" fill="#fabe2c"/><path d="m308.53 338.76c0 8.29-6.72 15-15 15h-37.65v-30h37.65c8.28 0 15 6.72 15 15z" fill="#ff9e22"/></g></svg>