<svg id="Capa_1" enable-background="new 0 0 511.938 511.938" height="512" viewBox="0 0 511.938 511.938" width="512" xmlns="http://www.w3.org/2000/svg"><g><path d="m445.979 258.52h-134.26l-41.48-127.69c-4.481-13.777-24.06-13.774-28.54 0l-41.48 127.69h-134.26c-14.484 0-20.536 18.615-8.81 27.13l108.61 78.91-41.49 127.69c-4.464 13.794 11.366 25.284 23.09 16.77l108.61-78.92 108.61 78.92c11.613 8.433 27.577-2.904 23.09-16.77l-41.49-127.69 108.61-78.91c11.72-8.511 5.679-27.13-8.81-27.13z" fill="#fed843"/><path d="m445.979 258.52h-134.26l-41.48-127.69c-2.01-6.18-7.77-10.36-14.27-10.36v18.69 44.85 212.55 22.69 10.85l108.61 78.92c11.659 8.466 27.563-2.95 23.09-16.77l-41.49-127.69 108.61-78.91c11.726-8.515 5.674-27.13-8.81-27.13z" fill="#fabe2c"/><path d="m293.559 331.23c0 8.29-6.72 15-15 15h-45.18c-8.28 0-15-6.71-15-15 0-8.28 6.72-15 15-15h45.18c8.28 0 15 6.72 15 15z" fill="#fabe2c"/><path d="m293.559 331.23c0 8.29-6.72 15-15 15h-22.59v-30h22.59c8.28 0 15 6.72 15 15z" fill="#ff9e22"/><path d="m383.909 75.23v60.24c0 8.28-6.71 15-15 15h-225.88c-8.29 0-15-6.72-15-15v-60.24c0-8.28 6.71-15 15-15h225.88c8.29 0 15 6.72 15 15z" fill="#333e73"/><path d="m383.909 75.23v60.24c0 8.28-6.71 15-15 15h-112.94v-90.24h112.94c8.29 0 15 6.72 15 15z" fill="#1f2859"/><path d="m466.729 15v60.23c0 8.29-6.71 15-15 15h-391.52c-8.29 0-15-6.71-15-15v-60.23c0-8.29 6.71-15 15-15h391.52c8.29 0 15 6.71 15 15z" fill="#4d578c"/><path d="m466.729 15v60.23c0 8.29-6.71 15-15 15h-195.76v-90.23h195.76c8.29 0 15 6.71 15 15z" fill="#333e73"/></g></svg>