<svg id="Capa_1" enable-background="new 0 0 511.88 511.88" height="512" viewBox="0 0 511.88 511.88" width="512" xmlns="http://www.w3.org/2000/svg"><g><path d="m97.82 15h316.24v481.88h-316.24z" fill="#edf5ff"/><path d="m255.94 15h158.12v481.88h-158.12z" fill="#d5e8fe"/><path d="m414.06 0h-316.24c-8.28 0-15 6.71-15 15v481.88c0 8.29 6.72 15 15 15h316.24c8.28 0 15-6.71 15-15v-481.88c0-8.29-6.72-15-15-15zm-15 481.88h-286.24v-451.88h286.24z" fill="#4d578c"/><path d="m429.06 15v481.88c0 8.29-6.72 15-15 15h-158.12v-30h143.12v-451.88h-143.12v-30h158.12c8.28 0 15 6.71 15 15z" fill="#333e73"/><path d="m368.82 316.18v120.47c0 8.28-6.71 15-15 15h-195.76c-8.29 0-15-6.72-15-15v-120.47c0-8.29 6.71-15 15-15h195.76c8.29 0 15 6.71 15 15z" fill="#2ee66b"/><path d="m368.82 316.18v120.47c0 8.28-6.71 15-15 15h-97.88v-150.47h97.88c8.29 0 15 6.71 15 15z" fill="#24b383"/><path d="m308.59 376.41c0 8.28-6.72 15-15 15h-75.3c-8.28 0-15-6.72-15-15s6.72-15 15-15h75.3c8.28 0 15 6.72 15 15z" fill="#24b383"/><path d="m308.59 376.41c0 8.28-6.72 15-15 15h-37.65v-30h37.65c8.28 0 15 6.72 15 15z" fill="#408080"/><path d="m361.07 154.85-50.71 36.84 19.37 59.61c4.502 13.842-11.424 25.2-23.08 16.78l-50.71-36.85-50.71 36.85c-11.732 8.514-27.56-3.006-23.08-16.78l19.37-59.61-50.71-36.84c-11.731-8.519-5.67-27.13 8.82-27.13h62.68l19.36-59.62c2.24-6.888 8.255-10.36 14.27-10.36 0 0 12.03 3.473 14.27 10.36l19.36 59.62h62.68c14.5 0 20.544 18.615 8.82 27.13z" fill="#fed843"/><path d="m361.07 154.85-50.71 36.84 19.37 59.61c4.502 13.842-11.424 25.2-23.08 16.78l-50.71-36.85v-173.49c6.5 0 12.26 4.18 14.27 10.36l19.36 59.62h62.68c14.5 0 20.544 18.615 8.82 27.13z" fill="#fabe2c"/></g></svg>