<svg id="Capa_1" enable-background="new 0 0 511.88 511.88" height="512" viewBox="0 0 511.88 511.88" width="512" xmlns="http://www.w3.org/2000/svg"><g><path d="m301.06 255.94v60.24c0 8.28-6.72 15-15 15h-60.24c-8.28 0-15-6.72-15-15v-60.24c0-8.28 6.72-15 15-15h60.24c8.28 0 15 6.72 15 15z" fill="#4d578c"/><path d="m301.06 255.94v60.24c0 8.28-6.72 15-15 15h-30.06v-90.24h30.06c8.28 0 15 6.72 15 15z" fill="#333e73"/><path d="m353.76 331.18v105.47c0 8.28-6.71 15-15 15h-165.64c-8.29 0-15-6.72-15-15v-105.47c0-8.29 6.71-15 15-15h82.88l62.217 28.59c8.29 0 35.543-21.88 35.543-13.59z" fill="#4d578c"/><path d="m353.76 331.18v105.47c0 8.28-6.71 15-15 15h-82.76v-135.47h82.76c8.29 0 15 6.71 15 15z" fill="#333e73"/><path d="m414 451.65v45.23c0 8.29-6.72 15-15 15h-286.12c-8.28 0-15-6.71-15-15v-45.23c0-8.29 6.72-15 15-15h286.12c8.28 0 15 6.71 15 15z" fill="#333e73"/><path d="m414 451.65v45.23c0 8.29-6.72 15-15 15h-143v-75.23h143c8.28 0 15 6.71 15 15z" fill="#1f2859"/><path d="m293.53 376.41c0 8.28-6.72 15-15 15h-45.18c-8.28 0-15-6.72-15-15s6.72-15 15-15h45.18c8.28 0 15 6.72 15 15z" fill="#edf5ff"/><path d="m293.53 376.41c0 8.28-6.72 15-15 15h-22.53v-30h22.53c8.28 0 15 6.72 15 15z" fill="#d5e8fe"/><path d="m391.41 75.23v60.24c0 50.029-27.259 93.811-67.704 117.273-11.745 6.813-23.78-2.929-37.404.112-9.493 2.119-30.302 18.085-30.302 18.085-74.841 0-135.53-60.829-135.53-135.47v-60.24c0-8.28 6.72-15 15-15s15 6.72 15 15v15.12h52.76c8.29 0 15 6.72 15 15 0 8.29-6.71 15-15 15h-52.76v15.12c0 58.16 47.31 105.47 105.47 105.47 58.109 0 105.47-47.26 105.47-105.47v-15.12h-52.76c-8.29 0-15-6.71-15-15 0-8.28 6.71-15 15-15h52.76v-15.12c0-8.28 6.72-15 15-15s15 6.72 15 15z" fill="#333e73"/><path d="m391.41 75.23v60.24c0 74.68-60.74 135.44-135.41 135.47v-30c58.13-.03 105.41-47.33 105.41-105.47v-15.12h-52.76c-8.29 0-15-6.71-15-15 0-8.28 6.71-15 15-15h52.76v-15.12c0-8.28 6.72-15 15-15s15 6.72 15 15z" fill="#1f2859"/><path d="m313.11 73.536 10.54 16.814v52.65c0 37.31-30.35 67.67-67.65 67.7-35.149 0-63.67-26.767-67.371-60.334 0 0 11.313-3.239 11.311-20.256 0-2.802-11.735-9.76-11.735-9.76.008-11.592.025-28.293.025-52.65 0-37.222 30.246-67.7 67.77-67.7 34.779.03 63.577 26.454 67.254 60.348 0 0-10.144 10.704-10.144 13.188z" fill="#edf5ff"/><path d="m305.706 74.217 17.944 16.133v52.65c0 37.31-30.35 67.67-67.65 67.7v-210.7c34.779.03 63.577 26.454 67.254 60.348 0 0-17.548 11.385-17.548 13.869z" fill="#d5e8fe"/><path d="m323.65 90.35h-52.65c-8.29 0-15-6.71-15-15 0-8.28 6.71-15 15-15h52.24c.526 4.771.41 5.502.41 30z" fill="#b5dbff"/><path d="m255.88 135.366c0 8.28-6.71 15-15 15h-52.251c-.557-5.05-.424-6.282-.424-30.016l52.676.016c8.289 0 14.999 6.72 14.999 15z" fill="#d5e8fe"/></g></svg>