<svg id="Capa_1" enable-background="new 0 0 511.843 511.843" height="512" viewBox="0 0 511.843 511.843" width="512" xmlns="http://www.w3.org/2000/svg"><g><path d="m368.801 397.51-21.58 2.09 21.58 31.98v65.24c0 11.73-12.91 18.92-22.86 12.77-6.707-4.124-65.901-40.542-75.07-46.2-5.23-3.36-6.27-27.19-10.97-30.08-4.302 2.629-13.382 26.676-18.98 30.12-20.67 12.72-48.8 30.03-75.02 46.16-10.05 6.19-22.86-1.13-22.86-12.77v-65.24l29.54-28.91-29.54-5.17v-137.51c0-8.28 6.72-15 15-15 8.3 0 15 6.74 15 15h165.76c0-8.28 6.72-15 15-15s15 6.72 15 15z" fill="#ff884d"/><path d="m368.801 397.51-21.58 2.09 21.58 31.98v65.24c0 11.73-12.91 18.92-22.86 12.77-26.559-16.329-81.89-50.402-90.02-55.39v-194.21h82.88c0-8.28 6.72-15 15-15s15 6.72 15 15z" fill="#ff4d4d"/><path d="m368.801 397.51v34.07l-97.88-52.7v84.55l-15-9.23-15 9.23v-84.55l-97.88 52.7v-34.08l97.88-52.7v-43.74c0-8.29 6.72-15 15-15s15 6.71 15 15v43.74z" fill="#ff4d4d"/><path d="m368.801 397.51v34.07l-97.88-52.7v84.55l-15-9.23v-168.14c8.28 0 15 6.71 15 15v43.74z" fill="#cc295f"/><path d="m411.961 129.43-49.66-87.35c-1.75-3.07-4.53-5.43-7.84-6.66l-98.54-35.42c-3.783 0-2.042.018-98.54 35.42-3.31 1.23-6.09 3.59-7.84 6.66l-49.66 87.35c-1.72 3.02-2.33 6.55-1.74 9.98l17.25 99.32c.6 3.45 2.38 6.58 5.05 8.85l76.09 64.84c2.71 2.31 6.16 3.58 9.73 3.58h99.32c3.57 0 7.02-1.27 9.73-3.58l76.09-64.84c2.67-2.27 4.45-5.4 5.05-8.85l17.25-99.32c.59-3.43-.02-6.96-1.74-9.98z" fill="#fed843"/><path d="m411.961 129.43-49.66-87.35c-1.75-3.07-4.53-5.43-7.84-6.66-96.21-35.42-94.756-35.42-98.54-35.42v316h49.66c3.57 0 7.02-1.27 9.73-3.58l76.09-64.84c2.67-2.27 4.45-5.4 5.05-8.85l17.25-99.32c.59-3.43-.02-6.96-1.74-9.98z" fill="#fabe2c"/><path d="m274.501 120.35v87.21c0 8.29-6.71 15-15 15-8.222 0-15-6.646-15-15v-72.21h-3.64c-8.28 0-15-6.72-15-15s6.72-15 15-15h18.64c8.29 0 15 6.72 15 15z" fill="#fabe2c"/><path d="m274.501 120.35v87.21c0 9.684-9.061 16.888-18.58 14.57v-116.78h3.58c8.29 0 15 6.72 15 15z" fill="#ff9e22"/><path d="m188.157 172.998h-15.059c-8.284 0-15-6.716-15-15s6.716-15 15-15h15.059c8.284 0 15 6.716 15 15s-6.716 15-15 15z" fill="#fabe2c"/><path d="m338.745 172.998h-15.059c-8.284 0-15-6.716-15-15s6.716-15 15-15h15.059c8.284 0 15 6.716 15 15s-6.716 15-15 15z" fill="#ff9e22"/></g></svg>