<svg id="Capa_1" enable-background="new 0 0 511.85 511.85" height="512" viewBox="0 0 511.85 511.85" width="512" xmlns="http://www.w3.org/2000/svg"><g><path d="m270.925 173.12v52.7c0 8.29-6.72 15-15 15s-15-6.71-15-15v-52.7c0-8.29 6.72-15 15-15s15 6.71 15 15z" fill="#4d578c"/><path d="m270.925 173.12v52.7c0 8.29-6.72 15-15 15v-82.7c8.28 0 15 6.71 15 15z" fill="#333e73"/><path d="m398.925 75.23v52.71c0 6.36-4.01 12.03-10.01 14.15l-132.99 46.03c-3.666 0-2.16.034-132.99-46.03-6-2.12-10.01-7.79-10.01-14.15v-52.71c0-8.28 6.72-15 15-15h256c8.28 0 15 6.72 15 15z" fill="#2ee66b"/><path d="m398.925 75.23v52.71c0 6.36-4.01 12.03-10.01 14.15-130.506 46.064-129.319 46.03-132.99 46.03v-127.89h128c8.28 0 15 6.72 15 15z" fill="#24b383"/><path d="m444.105 15v60.23c0 8.29-6.72 15-15 15h-346.36c-8.28 0-15-6.71-15-15v-60.23c0-8.29 6.72-15 15-15h346.36c8.28 0 15 6.71 15 15z" fill="#4d578c"/><path d="m444.105 15v60.23c0 8.29-6.72 15-15 15h-173.18v-90.23h173.18c8.28 0 15 6.71 15 15z" fill="#333e73"/><path d="m382.882 355.663c0 82.97-126.957 156.186-126.957 156.186-81.43 0-144.24-64.85-150.14-135.5-7.65-93.061 64.743-165.5 150.14-165.5 0 .001 126.957 61.934 126.957 144.814z" fill="#fed843"/><path d="m406.455 361.35c0 82.532-67.149 150.5-150.53 150.5v-301c82.946 0 150.53 67.527 150.53 150.5z" fill="#fabe2c"/><path d="m271.955 316.18v87.21c0 8.28-6.72 15-15 15-8.286 0-15-6.718-15-15v-72.21h-3.64c-8.29 0-15-6.72-15-15 0-8.29 6.71-15 15-15h18.64c8.28 0 15 6.71 15 15z" fill="#fabe2c"/><path d="m271.955 316.18v87.21c0 8.28-6.668 14.965-16.03 14.965v-117.175c10.195 0 16.03 7.261 16.03 15z" fill="#ff9e22"/><path d="m203.165 361.35c0 8.29-6.72 15-15 15h-82.38c-.779-9.475-.438-21.757.39-30h81.99c8.28 0 15 6.72 15 15z" fill="#fabe2c"/><path d="m405.705 376.35h-82.01c-8.29 0-15-6.71-15-15 0-8.28 6.71-15 15-15h82.02c1.021 10.291.956 20.479-.01 30z" fill="#ff9e22"/></g></svg>