<svg id="Capa_1" enable-background="new 0 0 511.88 511.88" height="512" viewBox="0 0 511.88 511.88" width="512" xmlns="http://www.w3.org/2000/svg"><g><path d="m75.23 15h361.42v481.88h-361.42z" fill="#edf5ff"/><path d="m255.94 15h180.71v481.88h-180.71z" fill="#d5e8fe"/><path d="m390.64 190.96c3.236 9.728-4.019 19.74-14.23 19.74h-240.94c-10.212 0-17.466-10.012-14.23-19.74l13.48-40.43-13.48-40.44c-3.236-9.728 4.019-19.74 14.23-19.74h67.76c11.471 0 18.721 12.405 13.02 22.44 26.954 15.402 26.579 15.24 26.68 15.24 5.679-9.982 20.319-10.02 26.02 0 .101 0-.414.242 26.68-15.24-5.688-10.012 1.528-22.44 13.02-22.44h67.76c10.211 0 17.466 10.012 14.23 19.74l-13.48 40.44z" fill="#ff4d4d"/><path d="m390.64 190.96c3.236 9.728-4.019 19.74-14.23 19.74h-120.47v-90.23c5.128 0 10.254 2.717 13.01 7.56.101 0-.414.242 26.68-15.24-5.688-10.012 1.528-22.44 13.02-22.44h67.76c10.211 0 17.466 10.012 14.23 19.74l-13.48 40.44z" fill="#cc295f"/><path d="m323.65 75.23v60.24c0 8.28-6.72 15-15 15h-105.42c-8.28 0-15-6.72-15-15v-60.24c0-8.28 6.72-15 15-15h105.42c8.28 0 15 6.72 15 15z" fill="#ff884d"/><path d="m323.65 75.23v60.24c0 8.28-6.72 15-15 15h-52.71v-90.24h52.71c8.28 0 15 6.72 15 15z" fill="#ff4d4d"/><path d="m436.65 0h-361.42c-8.28 0-15 6.71-15 15v481.88c0 8.29 6.72 15 15 15h361.42c8.28 0 15-6.71 15-15v-481.88c0-8.29-6.72-15-15-15zm-15 481.88h-331.42v-451.88h331.42z" fill="#4d578c"/><path d="m451.65 15v481.88c0 8.29-6.72 15-15 15h-180.71v-30h165.71v-451.88h-165.71v-30h180.71c8.28 0 15 6.71 15 15z" fill="#333e73"/><g fill="#2ee66b"><path d="m331.18 286.06c0 8.28-6.72 15-15 15h-120.48c-8.28 0-15-6.72-15-15 0-8.29 6.72-15 15-15h120.48c8.28 0 15 6.71 15 15z"/><path d="m391.41 346.29c0 8.29-6.72 15-15 15h-240.94c-8.28 0-15-6.71-15-15 0-8.28 6.72-15 15-15h240.94c8.28 0 15 6.72 15 15z"/><path d="m323.7 406.53c0 8.28-6.71 15-15 15h-105.41c-8.28 0-15-6.72-15-15 0-8.29 6.72-15 15-15h105.41c8.29 0 15 6.71 15 15z"/></g><path d="m316.18 301.06h-60.18v-30h60.18c8.28 0 15 6.71 15 15 0 8.28-6.72 15-15 15z" fill="#24b383"/><path d="m391.41 346.29c0 8.29-6.72 15-15 15h-120.41v-30h120.41c8.28 0 15 6.72 15 15z" fill="#24b383"/><path d="m323.7 406.53c0 8.28-6.71 15-15 15h-52.76v-30h52.76c8.29 0 15 6.71 15 15z" fill="#24b383"/></g></svg>