<svg id="Capa_1" enable-background="new 0 0 511.88 511.88" height="512" viewBox="0 0 511.88 511.88" width="512" xmlns="http://www.w3.org/2000/svg"><g><path d="m396.8 123.07-72.79 52.88 27.8 85.57c4.508 13.86-11.469 25.201-23.08 16.77l-72.79-52.88-72.79 52.88c-11.746 8.53-27.553-3.019-23.08-16.77l27.8-85.57-72.79-52.88c-11.72-8.527-5.668-27.14 8.82-27.14h89.97l27.8-85.57c2.236-6.875 8.266-10.347 14.27-10.36 0 0 12.026 3.46 14.27 10.36l27.8 85.57h89.97c14.493 0 20.535 18.616 8.82 27.14z" fill="#fed843"/><path d="m396.8 123.07-72.79 52.88 27.8 85.57c4.508 13.86-11.469 25.201-23.08 16.77l-72.79-52.88v-225.41c6.5 0 12.26 4.18 14.27 10.36l27.8 85.57h89.97c14.493 0 20.535 18.616 8.82 27.14z" fill="#fabe2c"/><path d="m391.41 278.47v67.82l-130.896 26.395-140.044-26.395v-67.82c0-8.28 6.72-15 15-15h240.94c8.28 0 15 6.72 15 15z" fill="#4d578c"/><path d="m391.41 278.47v67.82l-135.47 34.224v-117.044h120.47c8.28 0 15 6.72 15 15z" fill="#333e73"/><path d="m451.65 361.29v67.83l-195.71 17.61-195.71-17.61v-67.83c0-8.28 6.72-15 15-15h45.24l15 16.18 15-16.18h210.94l17.06 11.59 12.94-11.59h45.24c8.28 0 15 6.72 15 15z" fill="#333e73"/><path d="m451.65 361.29v67.83l-195.71 23.735v-106.565h105.47l17.06 11.59 12.94-11.59h45.24c8.28 0 15 6.72 15 15z" fill="#1f2859"/><path d="m120.47 346.29h30v95.797h-30z" fill="#4d578c"/><path d="m361.41 346.29h30v97.884h-30z" fill="#333e73"/><path d="m511.88 444.12v53.11c0 8.091-6.559 14.65-14.65 14.65h-45.58l-11.9-14.6-18.1 14.6h-30.24l-15-15.62-15 15.62h-210.94l-15-14.09-15 14.09h-30.24l-15-7.96-15 7.96h-45.58c-8.091 0-14.65-6.559-14.65-14.65v-53.11c0-8.284 6.716-15 15-15h45.23l15 13.52 15-13.52h30.24l18 15.56 12-15.56h210.94l15 17.61 15-17.61h30.24l15 14.54 15-14.54h45.23c8.284 0 15 6.716 15 15z" fill="#4d578c"/><g fill="#333e73"><path d="m511.88 444.12v53.11c0 8.091-6.559 14.65-14.65 14.65h-45.58l-11.9-14.6-18.1 14.6h-30.24l-15-15.62-15 15.62h-105.47v-82.76h105.47l15 17.61 15-17.61h30.24l15 14.54 15-14.54h45.23c8.284 0 15 6.716 15 15z"/><path d="m60.23 429.12h30v82.76h-30z"/><path d="m120.47 429.12h30v82.76h-30z"/></g><path d="m421.65 429.12h30v82.76h-30z" fill="#1f2859"/><path d="m361.41 429.12h30v82.76h-30z" fill="#1f2859"/></g></svg>