<svg id="Capa_1" enable-background="new 0 0 511.88 511.88" height="512" viewBox="0 0 511.88 511.88" width="512" xmlns="http://www.w3.org/2000/svg"><g><path d="m496.88 180.7h-119.51c-8.284 0-15 6.716-15 15s6.716 15 15 15v90.48c-8.284 0-15 6.716-15 15s6.716 15 15 15h119.51c8.284 0 15-6.716 15-15v-120.48c0-8.284-6.716-15-15-15z" fill="#ff9e22"/><path d="m134.51 301.18v-90.48c8.284 0 15-6.716 15-15s-6.716-15-15-15h-119.51c-8.284 0-15 6.716-15 15v120.48c0 8.284 6.716 15 15 15h119.51c8.284 0 15-6.716 15-15s-6.716-15-15-15z" fill="#fabe2c"/><path d="m120.411 270.94h-45.177c-8.284 0-15-6.716-15-15s6.716-15 15-15h45.177c8.284 0 15 6.716 15 15s-6.716 15-15 15z" fill="#333e73"/><path d="m436.646 270.94h-45.177c-8.284 0-15-6.716-15-15s6.716-15 15-15h45.177c8.284 0 15 6.716 15 15s-6.716 15-15 15z" fill="#1f2859"/><path d="m389.28 255.94c0 82.99-133.34 150.5-133.34 150.5-82.99 0-150.5-67.51-150.5-150.5s67.51-150.5 150.5-150.5c0 0 133.34 67.51 133.34 150.5z" fill="#4d578c"/><path d="m406.44 255.94c0 82.99-67.51 150.5-150.5 150.5v-301c82.99 0 150.5 67.51 150.5 150.5z" fill="#333e73"/><circle cx="255.94" cy="255.94" fill="#fed843" r="90"/><path d="m345.94 255.94c0 49.63-40.37 90-90 90v-180c49.63 0 90 40.37 90 90z" fill="#fabe2c"/><path d="m286 255.94c0 8.28-6.72 15-15 15h-30.12c-8.28 0-15-6.72-15-15s6.72-15 15-15h30.12c8.28 0 15 6.72 15 15z" fill="#fabe2c"/><path d="m286 255.94c0 8.28-6.72 15-15 15h-15.06v-30h15.06c8.28 0 15 6.72 15 15z" fill="#ff9e22"/></g></svg>