<svg id="Capa_1" enable-background="new 0 0 511.89 511.89" height="512" viewBox="0 0 511.89 511.89" width="512" xmlns="http://www.w3.org/2000/svg"><g><path d="m406.475 165.581v331.29c0 11.715-12.866 18.896-22.82 12.8l-127.71-78.04-127.71 78.04c-9.98 6.099-22.82-1.102-22.82-12.8v-331.29c0-8.29 6.72-15 15-15h271.06c8.28 0 15 6.71 15 15z" fill="#edf5ff"/><path d="m406.475 165.581v331.29c0 11.715-12.866 18.896-22.82 12.8l-127.71-78.04v-281.05h135.53c8.28 0 15 6.71 15 15z" fill="#d5e8fe"/><path d="m396.195 113.991c-4.784 6.782-14.138 8.367-20.9 3.61l-119.35-84.25-119.35 84.25c-6.761 4.756-16.116 3.174-20.9-3.61-4.78-6.77-3.17-16.13 3.6-20.9l128-90.36c2.799-1.868 5.784-2.715 8.65-2.729 3.044-.015 3.699 6.439 6.106 8.078 5.115 3.573 130.544 85.011 130.544 85.011 6.77 4.77 8.38 14.13 3.6 20.9z" fill="#4d578c"/><path d="m396.195 113.991c-4.784 6.782-14.138 8.367-20.9 3.61l-119.35-84.25v-33.35c5.957.001 6-1.262 136.65 93.09 6.77 4.77 8.38 14.13 3.6 20.9z" fill="#333e73"/><path d="m474.235 105.341v60.24c0 8.28-6.71 15-15 15h-406.58c-8.29 0-15-6.72-15-15v-60.24c0-8.28 6.71-15 15-15h406.58c8.29 0 15 6.72 15 15z" fill="#ff884d"/><path d="m474.235 105.341v60.24c0 8.28-6.71 15-15 15h-203.29v-90.24h203.29c8.29 0 15 6.72 15 15z" fill="#ff4d4d"/><path d="m338.485 294.341-36.75 26.7 14.04 43.2c4.508 13.859-11.47 25.202-23.08 16.77l-36.75-26.7-36.75 26.7c-11.712 8.522-27.56-2.995-23.08-16.77l14.04-43.2-36.75-26.7c-11.741-8.527-5.65-27.14 8.81-27.14h45.43l14.03-43.2c4.481-13.777 24.06-13.773 28.54 0l14.03 43.2h45.43c14.45 0 20.557 18.608 8.81 27.14z" fill="#fed843"/><path d="m338.485 294.341-36.75 26.7 14.04 43.2c4.508 13.859-11.47 25.202-23.08 16.77l-36.75-26.7v-140.67c6.5 0 12.26 4.18 14.27 10.36l14.03 43.2h45.43c14.45 0 20.557 18.608 8.81 27.14z" fill="#fabe2c"/></g></svg>