<svg id="Capa_1" enable-background="new 0 0 511.88 511.88" height="512" viewBox="0 0 511.88 511.88" width="512" xmlns="http://www.w3.org/2000/svg"><g><path d="m212.935 172.977-66.056-77.365c-5.991-7.016-16.833-7.002-22.814-.001l-66.067 77.365c-8.354 9.784-1.257 24.741 11.4 24.741 4.236 0 1.768 19.462 4.733 15.989l2.723 35.064 106.894-12.255 9.872-36.085c5.379 6.301 11.347-.926 17.647-6.305s7.048-14.847 1.668-21.148z" fill="#fabe2c"/><path d="m453.882 172.976-66.067-77.365c-5.986-7.008-16.829-7.008-22.814.001l-66.056 77.365c-5.38 6.301-4.633 15.769 1.667 21.147 6.302 5.381 10.523 19.074 15.903 12.773l30.298 86.69 81.021-40.732 4.766-42.894c2.967 3.475 5.646-12.244 9.882-12.244 12.658 0 19.754-14.957 11.4-24.741z" fill="#ff9e22"/><path d="m511.88 105.35v301.18c0 8.28-6.71 15-15 15h-481.88c-8.29 0-15-6.72-15-15v-301.18c0-15.48 20.732-20.769 28.16-7.2l69.87 127.73h74.88l69.87-127.73c2.837-5.189 8.004-7.796 13.16-7.8 0 0 10.319 2.604 13.16 7.8l69.87 127.73h74.88l69.87-127.73c7.433-13.578 28.16-8.269 28.16 7.2z" fill="#fed843"/><path d="m511.88 105.35v301.18c0 8.28-6.71 15-15 15h-240.94v-331.18c5.48 0 10.53 2.99 13.16 7.8l69.87 127.73h74.88l69.87-127.73c7.433-13.578 28.16-8.269 28.16 7.2z" fill="#fabe2c"/><path d="m511.88 331.29v30h-511.88v-30h120.47v-124.56c0-8.29 6.72-15 15-15s15 6.71 15 15v124.56h210.94l10.679-104.137c0-8.29-3.945-26.809 4.335-26.809s5.112 25.157 5.112 33.447l9.874 97.499z" fill="#fabe2c"/><path d="m511.88 331.29v30h-255.94v-30h105.47v-132.22c0-8.29 6.72-15 15-15s15 6.71 15 15v132.22z" fill="#ff9e22"/></g></svg>