<svg id="Capa_1" enable-background="new 0 0 511.904 511.904" height="512" viewBox="0 0 511.904 511.904" width="512" xmlns="http://www.w3.org/2000/svg"><g><path d="m322.542 91.614-6.87 79.05c-.71 8.25-7.98 14.38-16.24 13.64-5.831-.495-74.612 119.447-76.65 114.36l-36.43-83.49.34 4.78c.62 8.676-6.248 16.07-14.98 16.07-7.79 0-14.38-6.03-14.94-13.93-9.383-131.41-2.701-37.75-14.72-206-.839-11.573 11.279-19.685 21.67-14.49 120.445 60.223 84.297 42.15 150.59 75.29 5.5 2.75 8.77 8.59 8.23 14.72z" fill="#ff884d"/><path d="m322.542 91.614-6.87 79.05c-.71 8.25-7.98 14.38-16.24 13.64-2.71-.23-19.05 25.6-35.95 52.79v-185.61l50.83 25.41c5.5 2.75 8.77 8.59 8.23 14.72z" fill="#ff4d4d"/><path d="m390.322 144.174-22.59 293.65c-.61 7.82-7.12 13.85-14.96 13.85h-90.35c-8.28 0-15-6.72-15-15 0-7.98 6.23-14.48 14.09-14.95l-8.94-147.67c-8.28.49-15.38-5.79-15.88-14.06l-4.3-70.88c-.41-6.68 3.66-12.83 9.98-15.05 6.197-2.187 13.358-4.714 21.11-7.451 0 0 54.78 23.536 79.598 14.776 10.188-3.602 48.055-48.044 47.242-37.215z" fill="#fed843"/><path d="m390.322 144.174-22.59 293.65c-.61 7.82-7.12 13.85-14.96 13.85h-89.29v-285.06l106.89-37.73c10.189-3.602 20.763 4.461 19.95 15.29z" fill="#fabe2c"/><path d="m307.272 281.354-30.11 158.12c-1.28 6.73-6.94 11.69-13.68 12.16-.714.062 6.251.04-107.98.04-7.76 0-14.24-5.92-14.94-13.65-9.832-108.82-11.962-132.412-21.08-233.42-1.034-11.552 10.899-19.877 21.39-14.89 43.177 20.558 83.619 39.814 122.61 58.38 0 0 4.554 30.861 16.279 36.444 6.149 2.94 28.791-9.884 27.511-3.184z" fill="#2ee66b"/><path d="m307.272 281.354-30.11 158.12c-1.28 6.73-6.94 11.69-13.68 12.16v-203.54l35.51 16.91c6.15 2.94 9.56 9.65 8.28 16.35z" fill="#24b383"/><path d="m224.712 308.674c0 8.28-6.71 15-15 15h-79.48l-2.71-30h82.19c8.29 0 15 6.71 15 15z" fill="#24b383"/><path d="m247.302 127.964c0 8.28-6.71 15-15 15h-81.18l-2.15-30h83.33c8.29 0 15 6.72 15 15z" fill="#ff4d4d"/><path d="m224.712 368.904c0 8.29-6.71 15-15 15h-74.04l-2.71-30h76.75c8.29 0 15 6.72 15 15z" fill="#24b383"/><path d="m414.012 436.674v60.23c0 8.29-6.72 15-15 15h-286.12c-8.28 0-15-6.71-15-15v-60.23c0-8.29 6.72-15 15-15h286.12c8.28 0 15 6.71 15 15z" fill="#333e73"/><path d="m414.012 436.674v60.23c0 8.29-6.72 15-15 15h-135.53v-90.23h135.53c8.28 0 15 6.71 15 15z" fill="#1f2859"/></g></svg>