<svg id="Capa_1" enable-background="new 0 0 510.745 510.745" height="512" viewBox="0 0 510.745 510.745" width="512" xmlns="http://www.w3.org/2000/svg"><g><path d="m373.373 249.215c-27.01 27.02-61.38 43.99-98.59 49.08v76.979c0 8.28-6.72 15-15 15s-15-6.72-15-15v-75.47c-92.75-3.232-166.94-79.34-166.94-173 0-46.24 18.01-89.71 50.71-122.41 5.85-5.86 15.35-5.86 21.21 0l42.59 42.59c5.86 5.86 5.86 15.36 0 21.21-5.86 5.86-15.35 5.86-21.21 0l-31.44-31.44c-45.444 55.946-42.511 138.678 10.06 191.25 52.683 52.683 135.424 55.396 191.25 10.06l-31.44-31.44c-5.861-5.86-5.872-15.337 0-21.21 5.85-5.86 15.35-5.86 21.21 0l42.59 42.59c5.823 5.824 5.883 15.328 0 21.211z" fill="#4d578c"/><path d="m373.373 249.215c-27.01 27.02-61.38 43.99-98.59 49.08v76.979c0 8.28-6.72 15-15 15v-120.62c29.92-1.8 58.08-12.79 81.23-31.59l-31.44-31.44c-2.93-2.93-4.4-6.77-4.4-10.61 0-13.254 16.169-20.041 25.61-10.6l42.59 42.59c5.823 5.824 5.883 15.328 0 21.211z" fill="#333e73"/><path d="m365.132 375.275v60.24c0 8.28-6.71 15-15 15h-180.7c-8.29 0-15-6.72-15-15v-60.24c0-8.28 6.71-15 15-15h180.7c8.291 0 15 6.72 15 15z" fill="#4d578c"/><path d="m365.132 375.275v60.24c0 8.28-6.71 15-15 15h-90.35v-90.24h90.35c8.291 0 15 6.72 15 15z" fill="#333e73"/><path d="m432.902 435.515v60.23c0 8.29-6.72 15-15 15h-316.24c-8.28 0-15-6.71-15-15v-60.23c0-8.29 6.72-15 15-15h316.24c8.281 0 15 6.71 15 15z" fill="#333e73"/><path d="m432.902 435.515v60.23c0 8.29-6.72 15-15 15h-158.12v-90.23h158.12c8.281 0 15 6.71 15 15z" fill="#1f2859"/><path d="m332.357 140.63c-4.698 22.983 13.043 51.171-1.746 65.825-6.94 6.877-14.718 12.754-23.077 17.555 0 0-21.366-4.877-28.028-2.545-4.767 1.669-5.813 15.402-5.813 15.402-30.539 6.37-63.792.385-91.011-20.595 0 0 3.674-19.999.057-23.616-3.62-3.62-21.254 2.413-21.254 2.413-20.834-27.055-26.89-60.137-20.682-90.579 0 0 12.315-2.984 14.361-8.515 2.207-5.966-1.431-25.767-1.431-25.767 4.776-8.322 10.622-16.068 17.465-22.985 0 0 45.147 6.915 68.221 2.198 79.346-16.325 109.266 11.858 92.938 91.209z" fill="#edf5ff"/><path d="m330.512 206.355c-.14.141 7.362 7.543-159.313-159.131 6.969-7.026 14.849-12.841 23.148-17.656 0 0 22.756 4.883 28.349 2.748 5.716-2.181 5.471-15.619 5.471-15.619 30.838-6.341 64.196.154 91.035 20.659 0 0-1.528 14.975 2.091 18.62 3.431 3.457 19.149 2.567 19.149 2.567 20.088 26.289 27.076 59.763 20.645 91.083 0 0-8.912 1.775-10.602 6.584-2.312 6.579-2.287 27.209-2.287 27.209-4.767 8.189-10.659 15.91-17.686 22.936z" fill="#d5e8fe"/><path d="m234.543 164.435c24.66 23.61 49.762 44.074 72.992 59.574-10.62 6.19-22.091 10.457-33.841 12.857-19.77-14.56-40.231-31.922-60.361-51.222l-30.677 30.606c-7.844-5.993-15.01-13.115-21.169-21.182l30.636-30.634c-29.941-31.229-51.507-60.345-51.236-60.345 2.4-11.74 6.658-23.261 12.848-33.881 15.5 23.23 35.988 48.356 59.598 73.016 6.555-6.555 47.44-47.44 54.04-54.04-24.65-23.61-49.79-44.11-73.02-59.61 10.63-6.19 22.075-10.479 33.815-12.879 19.77 14.56 40.295 31.969 60.425 51.269l30.61-30.61c7.942 6.062 15.142 13.261 21.21 21.21l-30.61 30.61c19.3 20.14 36.72 40.67 51.28 60.45-2.4 11.74-6.7 23.17-12.89 33.79-15.5-23.24-36-48.37-59.61-73.02-6.601 6.601-47.486 47.486-54.04 54.041z" fill="#d5e8fe"/><path d="m361.082 149.625c-2.4 11.74-6.7 23.17-12.89 33.79-15.5-23.24-36-48.37-59.61-73.02l-27.1 27.1-21.21-21.21 27.1-27.1c-24.65-23.61-49.79-44.11-73.02-59.61 10.63-6.19 22.075-10.479 33.815-12.879 19.77 14.56 40.295 31.969 60.425 51.269l30.61-30.61c7.942 6.062 15.165 13.231 21.234 21.18l-30.633 30.64c19.3 20.14 36.719 40.67 51.279 60.45z" fill="#b5dbff"/></g></svg>