<svg id="Capa_1" enable-background="new 0 0 511.5 511.5" height="512" viewBox="0 0 511.5 511.5" width="512" xmlns="http://www.w3.org/2000/svg"><g><path d="m375.03 209.3c-127.564 59.28-111.767 52.918-119.14 54.11-3.86.64-6.92-1.63-119.42-54.11-6.11-2.85-9.56-9.42-8.46-16.06.91-5.49 29.02-174.15 30.12-180.71 1.21-7.23 11.62-3.33 18.96-3.33 91.263-1.102 64.969-.784 148.09-1.79 7.34 0 26.98-2.11 28.19 5.12 2.35 14.197 5.657 33.799 10.46 62.77.79 4.94-19.58 9.95-18.74 14.99.83 4.98 22.88 9.99 23.74 14.99.017.1 5.034 30.214 5.04 30.25.73 4.35-14.41 10.82-13.72 15 1 5.96 17.81 9.53 18.72 15 .159.914 4.266 25.585 4.62 27.71 1.1 6.64-2.35 13.21-8.46 16.06z" fill="#ff884d"/><path d="m375.03 209.3c-119.921 55.729-114.292 54.155-119.14 54.11-.218 0-.14 12.146-.14-255.16l69.43-.84c7.34 0 26.98-2.11 28.19 5.12 1.493 9.022 7.865 47.119 10.46 62.77.79 4.94-19.58 9.95-18.74 14.99.83 4.98 22.88 9.99 23.74 14.99 12.715 76.327-5.164-33.819 5.04 30.25.73 4.35-14.41 10.82-13.72 15 1 5.96 17.81 9.53 18.72 15 .079.456 3.545 21.255 4.62 27.71 1.1 6.64-2.35 13.21-8.46 16.06z" fill="#ff4d4d"/><path d="m443.93 15c0 8.28-6.72 15-15 15h-234.76l16.07 45.29h153.59l5 30h-147.95l10.73 30.24h142.26l5 30h-136.62c30.193 85.077 28.5 79.212 28.5 82.88v52.71c0 8.28-6.72 15-15 15s-15-6.72-15-15v-50.12l-78.42-221h-79.76c-8.28 0-15-6.72-15-15 0-8.29 6.72-15 15-15h346.36c8.28 0 15 6.71 15 15z" fill="#ff4d4d"/><g fill="#cc295f"><path d="m269.96 243.62c1.105 3.188.79.598.79 57.5 0 8.28-6.72 15-15 15l-.013-112.66c.439 1.238 13.896 39.226 14.223 40.16z"/><path d="m368.83 105.29h-113.08v-30h108.08z"/><path d="m373.87 135.53 5 30h-123.12v-30z"/><path d="m443.93 15c0 8.28-6.72 15-15 15h-173.18v-30h173.18c8.28 0 15 6.71 15 15z"/></g><path d="m255.75 286.5c-62.03 0-112.5 50.47-112.5 112.5s50.47 112.5 112.5 112.5 112.5-50.47 112.5-112.5-50.47-112.5-112.5-112.5zm0 142.5c-16.57 0-30-13.43-30-30s13.43-30 30-30 30 13.43 30 30-13.43 30-30 30z" fill="#fed843"/><path d="m368.25 399c0 62.03-50.47 112.5-112.5 112.5v-82.5c16.57 0 30-13.43 30-30s-13.43-30-30-30v-82.5c62.03 0 112.5 50.47 112.5 112.5z" fill="#fabe2c"/></g></svg>