<svg id="Capa_1" enable-background="new 0 0 511.88 511.88" height="512" viewBox="0 0 511.88 511.88" width="512" xmlns="http://www.w3.org/2000/svg"><g><path d="m474.23 176.884v75.29c0 8.28-25.85 6.11-34.14 6.11-20.536-.075-355.894-1.295-376.51-1.37-8.29 0-25.93 3.54-25.93-4.74v-75.29c0-8.29 6.71-15 15-15h128c19.97 0 38.45 6.53 53.42 17.56-18.9-29.5-75.83-59.07-157.85-80.7l-19.87-5.24c-8.01-2.12-12.79-10.32-10.68-18.33s10.32-12.79 18.33-10.68c59.13 15.59 153.6 42.1 191.94 93.98 38.49-52.08 133.65-78.61 191.94-93.98 8.01-2.11 16.22 2.67 18.33 10.68s-2.67 16.21-10.68 18.33l-19.87 5.24c-82.02 21.63-138.95 51.2-157.85 80.7 14.97-11.03 33.45-17.56 53.42-17.56h128c8.29 0 15 6.71 15 15z" fill="#fed843"/><path d="m474.23 176.884v75.29c0 8.28-25.85 6.11-34.14 6.11l-184.15-.67v-99.14c38.49-52.08 133.65-78.61 191.94-93.98 8.01-2.11 16.22 2.67 18.33 10.68s-2.67 16.21-10.68 18.33l-19.87 5.24c-82.02 21.63-138.95 51.2-157.85 80.7 14.97-11.03 33.45-17.56 53.42-17.56h128c8.29 0 15 6.71 15 15z" fill="#fabe2c"/><path d="m496.88 237.174h-158.12-165.64-158.12c-8.29 0-15 6.72-15 15s6.71 15 15 15h143.12v105.47c0 8.28 6.71 15 15 15h165.64c8.29 0 15-6.72 15-15v-105.47h143.12c8.29 0 15-6.72 15-15s-6.71-15-15-15z" fill="#4d578c"/><path d="m496.88 237.174h-158.12-82.82v30 120.47h82.82c8.29 0 15-6.72 15-15v-105.47h143.12c8.29 0 15-6.72 15-15s-6.71-15-15-15z" fill="#333e73"/><path d="m293.53 312.415c0 8.28-6.72 15-15 15h-45.18c-8.28 0-15-6.72-15-15 0-8.29 6.72-15 15-15h45.18c8.28 0 15 6.71 15 15z" fill="#edf5ff"/><path d="m293.53 312.415c0 8.28-6.72 15-15 15h-22.59v-30h22.59c8.28 0 15 6.71 15 15z" fill="#d5e8fe"/><path d="m414 372.644v60.24c0 8.28-6.72 15-15 15h-286.12c-8.28 0-15-6.72-15-15v-60.24c0-8.28 6.72-15 15-15h286.12c8.28 0 15 6.72 15 15z" fill="#333e73"/><path d="m414 372.644v60.24c0 8.28-6.72 15-15 15h-143.06v-90.24h143.06c8.28 0 15 6.72 15 15z" fill="#1f2859"/></g></svg>