<svg id="Capa_1" enable-background="new 0 0 510.117 510.117" height="512" viewBox="0 0 510.117 510.117" width="512" xmlns="http://www.w3.org/2000/svg"><g><path d="m457.901 171.507-62.36 266.79c-1.62 6.92-7.79 11.59-14.6 11.59-8.424 0-15-6.84-15-15h-221.77c.01 7.32-5.32 13.73-12.78 14.84-8.19 1.22-15.82-4.44-17.04-12.64l-62.36-419.87c-1.71-11.519 9.782-20.44 20.48-16.1 11.893 4.836 140.157 56.986 376.48 153.08 6.83 2.78 10.63 10.13 8.95 17.31z" fill="#edf5ff"/><path d="m457.901 171.507-62.36 266.79c-1.62 6.92-7.79 11.59-14.6 11.59-8.424 0-15-6.84-15-15h-110.88v-359.53l193.89 78.84c6.83 2.78 10.63 10.13 8.95 17.31z" fill="#d5e8fe"/><path d="m435.711 434.887v60.23c0 8.29-6.72 15-15 15h-331.3c-8.28 0-15-6.71-15-15v-60.23c0-8.29 6.72-15 15-15h331.3c8.28 0 15 6.71 15 15z" fill="#333e73"/><path d="m435.711 434.887v60.23c0 8.29-6.72 15-15 15h-165.65v-90.23h165.65c8.28 0 15 6.71 15 15z" fill="#1f2859"/><g fill="#2ee66b"><path d="m352.881 284.297v60.23c0 8.29-6.71 15-15 15h-165.64c-8.29 0-15-6.71-15-15v-60.23c0-8.29 6.71-15 15-15h165.64c8.29 0 15 6.71 15 15z"/><path d="m172.237 178.825h67.765c8.284 0 15-6.716 15-15s-6.716-15-15-15h-67.765c-8.284 0-15 6.716-15 15s6.716 15 15 15z"/><path d="m352.881 224.057c0 8.29-6.71 15-15 15h-165.64c-8.29 0-15-6.71-15-15 0-8.28 6.71-15 15-15h165.64c8.29 0 15 6.72 15 15z"/></g><path d="m352.881 284.297v60.23c0 8.29-6.71 15-15 15h-82.82v-90.23h82.82c8.29 0 15 6.71 15 15z" fill="#24b383"/><path d="m337.881 239.057h-82.82v-30h82.82c8.29 0 15 6.72 15 15 0 8.29-6.71 15-15 15z" fill="#24b383"/></g></svg>