<svg id="Capa_1" enable-background="new 0 0 511.46 511.46" height="512" viewBox="0 0 511.46 511.46" width="512" xmlns="http://www.w3.org/2000/svg"><g><path d="m300.85 240.46v75.3c0 8.28-6.72 15-15 15h-60.24c-8.28 0-15-6.72-15-15v-75.3c0-8.28 6.72-15 15-15h60.24c8.28 0 15 6.721 15 15z" fill="#4d578c"/><path d="m300.85 240.46v75.3c0 8.28-6.72 15-15 15h-30.12v-105.3h30.12c8.28 0 15 6.721 15 15z" fill="#333e73"/><path d="m353.55 315.761v120.47c0 8.28-6.71 15-15 15h-165.64c-8.29 0-15-6.72-15-15v-120.47c0-8.29 6.71-15 15-15h165.64c8.29 0 15 6.71 15 15z" fill="#4d578c"/><path d="m353.55 315.761v120.47c0 8.28-6.71 15-15 15h-82.82v-150.47h82.82c8.29 0 15 6.71 15 15z" fill="#333e73"/><path d="m413.79 436.23v60.23c0 8.29-6.72 15-15 15h-286.12c-8.28 0-15-6.71-15-15v-60.23c0-8.29 6.72-15 15-15h286.12c8.28 0 15 6.71 15 15z" fill="#333e73"/><path d="m413.79 436.23v60.23c0 8.29-6.72 15-15 15h-143.06v-90.23h143.06c8.28 0 15 6.71 15 15z" fill="#1f2859"/><path d="m293.32 360.99c0 8.28-6.72 15-15 15h-45.18c-8.28 0-15-6.72-15-15s6.72-15 15-15h45.18c8.28 0 15 6.72 15 15z" fill="#edf5ff"/><path d="m293.32 360.99c0 8.28-6.72 15-15 15h-22.59v-30h22.59c8.28 0 15 6.72 15 15z" fill="#d5e8fe"/><path d="m364.815 145.457c-3.468 30.057-8.542 9.309-29.362 29.106-3.538 3.473-7.99 40.472-12.003 43.487-4.01 3.02-14.01.962-18.38 3.491-20.172 11.69-49.34 33.479-49.34 33.479-22.547-.013-44.694-6.01-63.91-17.19 0 0-1.91-20.53-5.9-23.52-4.05-3.05-18.16 5.42-18.16 5.42-20.95-20.01-35.09-47.06-38.65-77.21 0 0 15.28-9.93 15.28-15s-15.28-15-15.28-15c3.55-30.19 17.71-57.22 38.65-77.21 0 0 20.63 6.54 24.97 3.34 3.75-2.77-.9-21.43-.9-21.43 19.548-11.37 41.581-17.247 63.9-17.22 0 0 20.434 13.969 40.66 25.542 5.385 2.692 18.298 11.349 23.09 15.149 3.063 2.432 9.26 17.305 11.973 20.085 22.295 21.27 21.641 20.478 24.936 48.681.58 4.92 5.87 14.674 5.87 19.744.001 5.07 3.136 11.336 2.556 16.256z" fill="#ff884d"/><path d="m382.35 142.521c-3.503 30.361-18.072 57.643-38.65 77.21 0 0-16.237-4.695-20.25-1.68-4.01 3.02-3.82 19.77-3.82 19.77-18.74 10.97-40.794 17.2-63.9 17.2v-255.02c21.706 0 43.586 5.497 63.48 16.971.143.079.285.158.411.25 0 0-5.032 19.591-.141 23.47 3.063 2.432 24.22-5.38 24.22-5.38 20.563 19.617 35.084 46.686 38.65 77.21 0 0-20.09 11.61-20.09 16.68 0 5.069 20.09 13.319 20.09 13.319z" fill="#ff4d4d"/><path d="m382.35 142.521h-73.49c3.17 28.75 15.37 55.8 34.84 77.21-7.26 6.92-15.34 13.01-24.07 18.09-23.36-26.57-37.72-59.97-40.91-95.3h-45.98c-3.19 35.33-17.55 68.73-40.91 95.3-8.73-5.08-16.81-11.17-24.07-18.09 19.47-21.41 31.67-48.46 34.84-77.21h-73.49c-1.159-9.834-1.187-19.929 0-30h73.49c-3.17-28.75-15.37-55.8-34.84-77.21 7.26-6.92 15.34-13.01 24.07-18.09 23.36 26.57 37.72 59.97 40.91 95.3h45.98c3.19-35.33 17.55-68.73 40.91-95.3 8.73 5.08 16.81 11.17 24.07 18.09-19.47 21.41-31.67 48.46-34.84 77.21h73.49c1.16 9.833 1.188 19.928 0 30z" fill="#edf5ff"/><path d="m382.35 142.521h-73.49c3.17 28.75 15.37 55.8 34.84 77.21-7.26 6.92-15.34 13.01-24.07 18.09-23.36-26.57-37.72-59.97-40.91-95.3h-22.99v-30h22.99c3.19-35.33 17.55-68.73 40.91-95.3 8.73 5.08 16.81 11.17 24.07 18.09-19.47 21.41-31.67 48.46-34.84 77.21h73.49c1.16 9.833 1.188 19.928 0 30z" fill="#d5e8fe"/></g></svg>