<svg id="Capa_1" enable-background="new 0 0 511.88 511.88" height="512" viewBox="0 0 511.88 511.88" width="512" xmlns="http://www.w3.org/2000/svg"><g><path d="m436.59 15c0 4.736.365 7.947-2.01 12.05l-40.84 70.74c-2.68 4.64-7.63 7.5-12.99 7.5h-249.62c-5.36 0-10.31-2.86-12.99-7.5-47.33-81.982-42.85-71.267-42.85-82.79 0-8.28 6.72-15 15-15h331.3c8.28 0 15 6.72 15 15z" fill="#24b383"/><path d="m436.59 15c0 4.736.365 7.947-2.01 12.05l-40.84 70.74c-2.68 4.64-7.63 7.5-12.99 7.5h-124.81v-105.29h165.65c8.28 0 15 6.72 15 15z" fill="#408080"/><path d="m233.871 238.24-133.151-230.62c-4.148-7.184-13.332-9.624-20.491-5.49l-65.2 37.65c-7.174 4.142-9.631 13.316-5.489 20.49l135.15 234.08c4.153 7.194 13.332 9.623 20.49 5.49 6.637-3.832 10.076-12.548 5.091-21.181l38.051-24.751c4.317 6.646 13.117 8.832 20.058 4.822 7.175-4.142 9.633-13.316 5.491-20.49z" fill="#2ee66b"/><path d="m496.851 39.78-65.2-37.65c-7.168-4.138-16.347-1.687-20.491 5.49l-133.15 230.62c-4.143 7.174-1.685 16.349 5.49 20.49 6.94 4.007 15.741 1.823 20.058-4.822 42.271 27.496 38.23 24.441 37.652 25.442-5.801 10.046 1.55 22.503 12.977 22.503 5.184-.001 10.226-2.69 13.004-7.503l135.149-234.08c4.142-7.174 1.685-16.348-5.489-20.49z" fill="#24b383"/><path d="m346.275 368.88c0 78.85-90.335 143-90.335 143-78.85 0-143-64.15-143-143s64.15-143 143-143c0 0 90.335 64.15 90.335 143z" fill="#ff884d"/><path d="m398.94 368.88c0 78.85-64.15 143-143 143v-286c78.85 0 143 64.15 143 143z" fill="#ff4d4d"/><path d="m331.18 338.76c0 8.29-6.72 15-15 15h-120.48c-8.28 0-15-6.71-15-15 0-8.28 6.72-15 15-15h120.48c8.28 0 15 6.72 15 15z" fill="#edf5ff"/><path d="m331.18 399c0 8.28-6.72 15-15 15h-120.48c-8.28 0-15-6.72-15-15 0-8.29 6.72-15 15-15h120.48c8.28 0 15 6.71 15 15z" fill="#edf5ff"/><g fill="#d5e8fe"><path d="m331.18 399c0 8.28-6.72 15-15 15h-60.24v-30h60.24c8.28 0 15 6.71 15 15z"/><path d="m316.18 353.76h-60.24v-30h60.24c8.28 0 15 6.72 15 15 0 8.29-6.72 15-15 15z"/></g></g></svg>