<svg id="Capa_1" enable-background="new 0 0 511.88 511.88" height="512" viewBox="0 0 511.88 511.88" width="512" xmlns="http://www.w3.org/2000/svg"><g><path d="m286.06 120.351c-8.284 0-15-6.716-15-15v-90.351c0-8.284 6.716-15 15-15h60.23c8.284 0 15 6.716 15 15s-6.716 15-15 15h-45.23v75.351c0 8.284-6.716 15-15 15z" fill="#333e73"/><path d="m225.82 120.351c-8.284 0-15-6.716-15-15v-75.351h-45.23c-8.284 0-15-6.716-15-15s6.716-15 15-15h60.23c8.284 0 15 6.716 15 15v90.351c0 8.284-6.716 15-15 15z" fill="#4d578c"/><path d="m188.176 308.588h-60.236c-8.284 0-15-6.716-15-15v-105.412c0-8.284 6.716-15 15-15h60.235c8.284 0 15 6.716 15 15v105.412c.001 8.284-6.715 15-14.999 15zm-45.236-30h37.66l-1.532-75.412h-36.128z" fill="#4d578c"/><path d="m338.7 105.351v120.53l-13.334 15 13.334 15v120.53c0 8.28-6.71 15-15 15h-135.52c-8.29 0-15-6.72-15-15v-120.531l13.037-18.514-13.037-11.486v-120.53c0-8.28 6.71-15 15-15h135.52c8.29.001 15 6.72 15 15.001z" fill="#edf5ff"/><path d="m338.7 105.351v120.53l-17.675 15.001 17.675 14.998v120.53c0 8.28-6.71 15-15 15h-67.76v-301.059h67.76c8.29 0 15 6.719 15 15z" fill="#d5e8fe"/><path d="m398.94 376.41v60.24c0 8.28-6.72 15-15 15h-256c-8.28 0-15-6.72-15-15v-60.24c0-8.28 6.72-15 15-15h256c8.28 0 15 6.72 15 15z" fill="#4d578c"/><path d="m398.94 376.41v60.24c0 8.28-6.72 15-15 15h-128v-90.24h128c8.28 0 15 6.72 15 15z" fill="#333e73"/><path d="m474.23 436.65v60.23c0 8.29-6.71 15-15 15h-406.58c-8.29 0-15-6.71-15-15v-60.23c0-8.29 6.71-15 15-15h406.58c8.29 0 15 6.71 15 15z" fill="#333e73"/><path d="m474.23 436.65v60.23c0 8.29-6.71 15-15 15h-203.29v-90.23h203.29c8.29 0 15 6.71 15 15z" fill="#1f2859"/><path d="m173.18 225.88h165.52v30h-165.52z" fill="#2ee66b"/><path d="m255.94 225.88h82.76v30h-82.76z" fill="#24b383"/></g></svg>