<svg id="Capa_1" enable-background="new 0 0 511.901 511.901" height="512" viewBox="0 0 511.901 511.901" width="512" xmlns="http://www.w3.org/2000/svg"><g><path d="m414.01 15v481.88c0 11.543-12.528 18.77-22.52 12.98l-135.54-78.47-135.54 78.47c-9.987 5.79-22.52-1.429-22.52-12.98v-481.88c0-8.29 6.72-15 15-15h286.12c8.28 0 15 6.71 15 15z" fill="#edf5ff"/><path d="m414.01 15v481.88c0 11.543-12.528 18.77-22.52 12.98l-135.54-78.47v-431.39h143.06c8.28 0 15 6.71 15 15z" fill="#d5e8fe"/><path d="m353.77 195.7v120.48c0 8.46-6.82 15.05-15 15.05h-165.64c-7.79 0-14.18-5.92-14.92-13.51-.13-1.2-.08 6.58-.08-122.02 0-13.3 16.15-20.06 25.6-10.6l33.57 33.56 27.13-32.56c3-3.6 7.26-5.39 11.52-5.39s8.52 1.79 11.52 5.39l27.13 32.56 33.57-33.56c9.48-9.49 25.6-2.61 25.6 10.6z" fill="#fed843"/><path d="m353.77 195.7v120.48c0 8.46-6.82 15.05-15 15.05h-82.82v-150.52c4.26 0 8.52 1.79 11.52 5.39l27.13 32.56 33.57-33.56c9.48-9.49 25.6-2.61 25.6 10.6z" fill="#fabe2c"/><path d="m97.89 60.23h316.12v30h-316.12z" fill="#4d578c"/><path d="m255.95 60.23h158.06v30h-158.06z" fill="#333e73"/></g></svg>