<svg id="Capa_1" enable-background="new 0 0 511.936 511.936" height="512" viewBox="0 0 511.936 511.936" width="512" xmlns="http://www.w3.org/2000/svg"><g><path d="m348.137 211.739c-89.924 71.922-84 68.003-88.8 69.13-2.126.387-3.745.608-6.45.07-5.685-1.567 2.196 3.738-90.299-70.24-6.47-5.18-6.351-13.57-1.181-20.041 5.17-6.47 14.61-7.53 21.08-2.35l73.481 58.631 73.439-58.631c6.46-5.17 15.9-4.12 21.08 2.35 5.17 6.471 4.12 15.901-2.35 21.081z" fill="#333e73"/><path d="m349.306 210.7c-86.511 69.191-86.058 70.559-93.349 70.559-.101 0 .011.394.011-34.319l73.439-58.631c6.46-5.17 15.9-4.12 21.08 2.35 5.17 6.47 5.289 14.861-1.181 20.041z" fill="#1f2859"/><path d="m414.028 27.86v154.98c0 7.11-6.72 12.86-15 12.86h-286.12c-8.28 0-15-5.75-15-12.86v-154.98c0-7.11 6.72-12.86 15-12.86h286.12c8.28 0 15 5.75 15 12.86z" fill="#2ee66b"/><path d="m414.028 27.86v154.98c0 7.11-6.72 12.86-15 12.86h-143.06v-180.7h143.06c8.28 0 15 5.75 15 12.86z" fill="#24b383"/><path d="m459.208 15c0 8.28-6.72 15-15 15h-376.48c-8.28 0-15-6.72-15-15 0-8.29 6.72-15 15-15h376.48c8.28 0 15 6.71 15 15z" fill="#4d578c"/><path d="m459.208 195.7c0 8.29-6.72 15-15 15h-376.48c-8.28 0-15-6.71-15-15 0-8.28 6.72-15 15-15h376.48c8.28 0 15 6.72 15 15z" fill="#4d578c"/><path d="m459.208 195.7c0 8.29-6.72 15-15 15h-188.24v-30h188.24c8.28 0 15 6.72 15 15z" fill="#333e73"/><path d="m444.208 30h-188.24v-30h188.24c8.28 0 15 6.71 15 15 0 8.28-6.72 15-15 15z" fill="#333e73"/><path d="m338.728 75.23c0 8.29-6.71 15-15 15h-143.05c-8.29 0-15-6.71-15-15 0-8.28 6.71-15 15-15h143.05c8.29 0 15 6.72 15 15z" fill="#24b383"/><path d="m338.728 135.47c0 8.28-6.71 15-15 15h-143.05c-8.29 0-15-6.72-15-15s6.71-15 15-15h143.05c8.29 0 15 6.72 15 15z" fill="#24b383"/><path d="m338.728 135.47c0 8.28-6.71 15-15 15h-67.76v-30h67.76c8.29 0 15 6.72 15 15z" fill="#408080"/><path d="m323.728 90.23h-67.76v-30h67.76c8.29 0 15 6.72 15 15 0 8.29-6.71 15-15 15z" fill="#408080"/><path d="m379.478 336.68h-83.45l-25.79-79.37c-2.242-6.895-14.27-10.37-14.27-10.37-6.006.006-12.029 3.479-14.27 10.37l-25.79 79.37h-83.45c-14.492 0-20.544 18.626-8.82 27.14l67.52 49.05-25.79 79.38c-4.481 13.777 11.356 25.284 23.08 16.77l67.52-49.06 67.52 49.06c11.615 8.436 27.586-2.916 23.08-16.77l-25.79-79.38 67.52-49.05c11.727-8.516 5.669-27.14-8.82-27.14z" fill="#fed843"/><path d="m379.478 336.68h-83.45l-25.79-79.37c-2.01-6.18-7.77-10.37-14.27-10.37v16.72 46.82 115.94 23.4 10.14l67.52 49.06c11.611 8.433 27.587-2.911 23.08-16.77l-25.79-79.38 67.52-49.05c11.724-8.514 5.672-27.14-8.82-27.14z" fill="#fabe2c"/></g></svg>