<svg id="Capa_1" enable-background="new 0 0 511.881 511.881" height="512" viewBox="0 0 511.881 511.881" width="512" xmlns="http://www.w3.org/2000/svg"><g><path d="m400.47 210.706c-8.284 0-15-6.716-15-15v-60.235c0-8.284 6.716-15 15-15s15 6.716 15 15v60.235c0 8.284-6.716 15-15 15z" fill="#ff9e22"/><path d="m468.235 0h-135.53c-8.284 0-15 6.716-15 15v52.706c0 45.637 37.128 82.765 82.765 82.765s82.765-37.128 82.765-82.765v-52.706c0-8.284-6.716-15-15-15z" fill="#fabe2c"/><path d="m430.588 180.706h-60.235c-8.284 0-15 6.716-15 15v60.235c0 8.284 6.716 15 15 15h60.235c8.284 0 15-6.716 15-15v-60.235c0-8.284-6.716-15-15-15z" fill="#fabe2c"/><path d="m470.701 255.682v246.196l-143-4.996-30.931-104.792 30.93-83.749c0-5.576 0-52.945 0-52.66 0-8.284 6.716-15 15-15h113c8.285.001 15.001 6.716 15.001 15.001z" fill="#1f2859"/><path d="m184.701 376.261 25.261 33.851v41.553l-24 50.213-115.915-10.724-29.016-9.273c0-2.782 0-92.291 0-90.621 0-8.284 6.716-15 15-15h128.67z" fill="#333e73"/><path d="m327.701 346.411-19.6 15 19.6 15v37.24l-7.95 15 7.95 15v58.23c-90.741-1.358-54.664-.818-137.14-2.05l-5.86-17.95c0-16.676 0-138.639 0-158.54 0-8.28 6.72-15 15-15h128z" fill="#4d578c"/><path d="m327.701 501.881-71.5-1.07v-192.47h71.5z" fill="#333e73"/><path d="m511.881 496.881c0 8.29-6.71 15-15 15h-481.88c-8.29 0-15-6.71-15-15 0-8.28 6.71-15 15-15h481.88c8.29 0 15 6.721 15 15z" fill="#333e73"/><path d="m511.881 496.881c0 8.29-6.71 15-15 15h-240.68v-30h240.68c8.29 0 15 6.721 15 15z" fill="#1f2859"/></g></svg>