<svg id="Capa_1" enable-background="new 0 0 511.88 511.88" height="512" viewBox="0 0 511.88 511.88" width="512" xmlns="http://www.w3.org/2000/svg"><g><path d="m15 97.82h481.88v316.24h-481.88z" fill="#edf5ff"/><path d="m255.94 97.82h240.94v316.24h-240.94z" fill="#d5e8fe"/><path d="m180.651 82.82h-90.36c-8.284 0-15 6.716-15 15v256c0 10.225 10.035 17.469 19.743 14.23l40.437-13.479c44.718 14.905 41.872 14.248 45.18 14.248 8.264 0 15.001-6.7 15.001-15v-256c-.001-8.283-6.717-14.999-15.001-14.999z" fill="#ff884d"/><circle cx="135.469" cy="218.292" fill="#fed843" r="75"/><path d="m436.646 240.823h-165.647c-8.284 0-15-6.716-15-15s6.716-15 15-15h165.647c8.284 0 15 6.716 15 15s-6.716 15-15 15z" fill="#24b383"/><path d="m436.646 301.057h-165.647c-8.284 0-15-6.716-15-15s6.716-15 15-15h165.647c8.284 0 15 6.716 15 15s-6.716 15-15 15z" fill="#24b383"/><path d="m496.88 82.82h-481.88c-8.29 0-15 6.72-15 15v316.24c0 8.28 6.71 15 15 15h481.88c8.29 0 15-6.72 15-15v-316.24c0-8.28-6.71-15-15-15zm-15 316.24h-451.88v-286.24h451.88z" fill="#4d578c"/><path d="m511.88 97.82v316.24c0 8.28-6.71 15-15 15h-240.94v-30h225.94v-286.24h-225.94v-30h240.94c8.29 0 15 6.72 15 15z" fill="#333e73"/></g></svg>