<svg id="Capa_1" enable-background="new 0 0 511.88 511.88" height="512" viewBox="0 0 511.88 511.88" width="512" xmlns="http://www.w3.org/2000/svg"><g><path d="m97.82 15h316.24v481.88h-316.24z" fill="#edf5ff"/><path d="m255.94 15h158.12v481.88h-158.12z" fill="#d5e8fe"/><path d="m331.18 250.27v126.14c0 11.737-12.946 18.977-22.95 12.721l-52.29-32.681-52.29 32.681c-9.962 6.217-22.95-.926-22.95-12.721v-126.14c0-8.28 6.72-15 15-15s15 6.72 15 15h90.48c0-8.28 6.72-15 15-15s15 6.72 15 15z" fill="#ff884d"/><path d="m331.18 250.27v126.14c0 11.737-12.946 18.977-22.95 12.721l-52.29-32.681v-106.18h45.24c0-8.28 6.72-15 15-15s15 6.72 15 15z" fill="#ff4d4d"/><path d="m328.43 173.12c0 62.03-72.489 112.5-72.489 112.5-62.03 0-112.5-50.47-112.5-112.5 0-62.04 50.47-112.5 112.5-112.5-.001 0 72.489 50.46 72.489 112.5z" fill="#fed843"/><path d="m368.44 173.12c0 62.03-50.47 112.5-112.5 112.5v-225c62.03 0 112.5 50.46 112.5 112.5z" fill="#fabe2c"/><path d="m308.59 173.12c0 8.28-6.72 15-15 15h-75.3c-8.28 0-15-6.72-15-15 0-8.29 6.72-15 15-15h75.3c8.28 0 15 6.71 15 15z" fill="#fabe2c"/><path d="m308.59 173.12c0 8.28-6.72 15-15 15h-37.65v-30h37.65c8.28 0 15 6.71 15 15z" fill="#ff9e22"/><path d="m414.06 0h-316.24c-8.28 0-15 6.71-15 15v481.88c0 8.29 6.72 15 15 15h316.24c8.28 0 15-6.71 15-15v-481.88c0-8.29-6.72-15-15-15zm-15 421.65h-286.24v-391.65h286.24z" fill="#4d578c"/><path d="m429.06 15v481.88c0 8.29-6.72 15-15 15h-158.12v-90.23h143.12v-391.65h-143.12v-30h158.12c8.28 0 15 6.71 15 15z" fill="#333e73"/></g></svg>