<svg id="Capa_1" enable-background="new 0 0 511.913 511.913" height="512" viewBox="0 0 511.913 511.913" width="512" xmlns="http://www.w3.org/2000/svg"><g><path d="m338.717 15.017v120.47c0 8.279-6.71 15-15 15h-135.52c-8.29 0-15-6.721-15-15v-120.47c0-10.854 11.174-18.112 21.09-13.71 55.349 24.597 42.012 18.668 61.67 27.41 19.76-8.786 7.109-3.163 61.67-27.41 9.92-4.404 21.09 2.86 21.09 13.71z" fill="#ff884d"/><path d="m338.717 15.017v120.47c0 8.279-6.71 15-15 15h-67.76v-121.77c19.76-8.786 7.109-3.163 61.67-27.41 9.92-4.404 21.09 2.86 21.09 13.71z" fill="#ff4d4d"/><path d="m270.957 22.047v113.44c0 8.279-6.72 15-15 15s-15-6.721-15-15v-113.44l15 6.67z" fill="#ff4d4d"/><path d="m255.957 150.487v-121.77l15-6.67v113.44c0 8.28-6.72 15-15 15z" fill="#cc295f"/><path d="m338.717 376.427v120.471c0 10.834-11.131 18.099-21.09 13.71-54.646-24.285-42.061-18.691-61.67-27.41-19.839 8.822-5.896 2.624-61.67 27.41-9.904 4.396-21.09-2.842-21.09-13.71v-120.471c0-8.279 6.71-15 15-15h135.52c8.29 0 15 6.721 15 15z" fill="#ff884d"/><path d="m338.717 376.427v120.471c0 10.834-11.131 18.099-21.09 13.71-54.646-24.285-42.061-18.691-61.67-27.41v-121.771h67.76c8.29 0 15 6.721 15 15z" fill="#ff4d4d"/><path d="m270.957 376.427v113.44l-15-6.67-15 6.67v-113.44c0-8.279 6.72-15 15-15s15 6.721 15 15z" fill="#ff4d4d"/><path d="m270.957 376.427v113.44l-15-6.67v-121.77c8.28 0 15 6.721 15 15z" fill="#cc295f"/><path d="m409.467 263.517-93.33 72.249-60.18 48.571c-38.97 0-78.01 0-82.76.01l-70.75-120.83c-2.72-4.67-2.72-10.449 0-15.119l70.75-122.71 82.76.04 56.234 41.528 97.276 81.143c2.72 4.669 2.72 10.448 0 15.118z" fill="#fed843"/><g fill="#fabe2c"><path d="m409.467 263.517-70.75 120.83s-41.34-.01-82.76-.01v-258.61l82.76.04 70.75 122.63c2.72 4.671 2.72 10.45 0 15.12z"/><path d="m316.137 225.837c0 8.29-6.72 15-15 15h-90.36c-8.28 0-15-6.71-15-15 0-8.28 6.72-15 15-15h90.36c8.28 0 15 6.72 15 15z"/><path d="m316.137 286.077c0 8.28-6.72 15-15 15h-90.36c-8.28 0-15-6.72-15-15 0-8.29 6.72-15 15-15h90.36c8.28 0 15 6.71 15 15z"/></g><path d="m316.137 286.077c0 8.28-6.72 15-15 15h-45.18v-30h45.18c8.28 0 15 6.71 15 15z" fill="#ff9e22"/><path d="m301.137 240.837h-45.18v-30h45.18c8.28 0 15 6.72 15 15 0 8.29-6.72 15-15 15z" fill="#ff9e22"/></g></svg>