<svg id="Capa_1" enable-background="new 0 0 512 512" height="512" viewBox="0 0 512 512" width="512" xmlns="http://www.w3.org/2000/svg"><g><path d="m511.999 166.4-.609-123.498c-.115-23.309-18.982-42.177-42.292-42.292l-123.498-.609c-24.674-.122-47.476 13.137-59.575 34.641l-111.865 198.824 104.374 104.374 198.824-111.865c21.504-12.099 34.763-34.901 34.641-59.575z" fill="#8ee2e1"/><path d="m363.378.089-17.778-.088c-24.673-.122-47.475 13.137-59.574 34.641l-111.866 198.824 104.374 104.374 67.835-38.166c-105.804-56.374-47.495-235.651 17.009-299.585z" fill="#6ad7d4"/><path d="m281.854 237.645c-1.92 0-3.839-.732-5.304-2.197-2.929-2.929-2.929-7.678 0-10.606l55.234-55.234c2.931-2.929 7.679-2.929 10.607 0 2.929 2.929 2.929 7.678 0 10.606l-55.234 55.234c-1.464 1.465-3.384 2.197-5.303 2.197z" fill="#6ad7d4"/><path d="m82.101 319.257h89.281v132.002h-89.281z" fill="#a78cd6" transform="matrix(.707 .707 -.707 .707 309.541 23.22)"/><path d="m141.846 307.023-35.083 35.083c10.457 11.592 20.841 22.302 30.836 32.296 9.994 9.994 20.704 20.378 32.296 30.835l35.083-35.083z" fill="#807bcf"/><path d="m107.206 496.663c22.394-22.394 20.625-39.111-16.067-75.803s-53.409-38.46-75.803-16.067c-22.394 22.394-19.982 61.113 5.387 86.482 25.37 25.37 64.089 27.782 86.483 5.388z" fill="#f5ea72"/><path d="m163.094 348.906c-33.857-33.856-72.377-76.241-101.373-133.896-14.253-28.34-2.833-62.87 25.509-77.123 28.34-14.253 62.87-2.831 77.123 25.509 21.611 42.972 51.208 75.514 79.972 104.279 28.764 28.764 61.306 58.361 104.28 79.973 28.34 14.25 39.761 48.781 25.508 77.123-14.253 28.341-48.782 39.761-77.123 25.508-57.656-28.996-100.04-67.516-133.896-101.373z" fill="#d4d4ff"/><g><g fill="#fff"><ellipse cx="320.015" cy="74.497" rx="24.411" ry="30.654" transform="matrix(.708 -.707 .707 .708 40.904 247.865)"/><ellipse cx="437.401" cy="192.087" rx="24.411" ry="30.654" transform="matrix(.708 -.707 .707 .708 -7.863 365.167)"/></g><g fill="#565e75"><path d="m349.377 77.929c-1.922 0-3.843-.734-5.308-2.201-2.927-2.932-2.923-7.68.009-10.607l8.658-8.644c2.932-2.926 7.681-2.922 10.606.008 2.927 2.932 2.923 7.68-.009 10.607l-8.658 8.645c-1.463 1.461-3.381 2.192-5.298 2.192z"/><path d="m441.51 170.242c-1.922 0-3.843-.734-5.308-2.201-2.927-2.932-2.923-7.68.009-10.607l8.658-8.645c2.932-2.927 7.681-2.921 10.607.008 2.927 2.932 2.923 7.68-.009 10.607l-8.658 8.645c-1.464 1.462-3.382 2.193-5.299 2.193z"/><path d="m403.746 140.091c-1.922 0-3.843-.734-5.308-2.201l-24.294-24.335c-2.927-2.932-2.923-7.68.009-10.606 2.931-2.926 7.68-2.922 10.607.009l24.294 24.336c2.927 2.932 2.923 7.68-.009 10.606-1.464 1.46-3.382 2.191-5.299 2.191z"/></g></g></g></svg>